<?xml version="1.0" encoding="UTF-8"?>
<svg version="1.1" xmlns="http://www.w3.org/2000/svg" width="512" height="512">
<path d="M0 0 C115.5 0 231 0 350 0 C350 21.12 350 42.24 350 64 C364.77848806 63.88159117 364.77848806 63.88159117 379.55664062 63.72973633 C381.42317182 63.72096622 383.2897088 63.71332353 385.15625 63.70703125 C386.58469238 63.6840094 386.58469238 63.6840094 388.04199219 63.66052246 C394.87733562 63.65786624 400.46134839 64.52607542 406.20703125 68.54296875 C406.73683594 69.08566406 407.26664062 69.62835938 407.8125 70.1875 C408.35519531 70.71730469 408.89789063 71.24710937 409.45703125 71.79296875 C414.59688465 79.14491095 414.42766324 86.63120534 414.38095093 95.28442383 C414.3844113 96.6303155 414.3891784 97.97620434 414.39513266 99.32208729 C414.40762035 103.00555842 414.40148256 106.68879544 414.39217401 110.37226725 C414.38537466 114.35051949 414.39586913 118.32873202 414.40411377 122.30697632 C414.41744386 130.09446088 414.4145766 137.88185863 414.40587585 145.66934657 C414.39909686 151.99918628 414.39818351 158.32900169 414.4014473 164.65884399 C414.401907 165.56021806 414.40236669 166.46159212 414.40284032 167.39028054 C414.40379951 169.22148443 414.40477215 171.05268831 414.4057581 172.88389218 C414.41430987 190.04947537 414.4044812 207.21501048 414.388357 224.38058579 C414.37495401 239.10498492 414.37728216 253.82931309 414.39111328 268.55371094 C414.40717285 285.65845629 414.41348592 302.7631595 414.40427649 319.86791134 C414.40332086 321.69232622 414.40237774 323.51674111 414.4014473 325.34115601 C414.40098447 326.23877035 414.40052164 327.1363847 414.40004479 328.06119949 C414.39745604 334.38241355 414.40182344 340.70360087 414.40888596 347.02481079 C414.41730533 354.72972341 414.41501161 362.43454436 414.39904372 370.1394465 C414.39116689 374.06956162 414.38805934 377.99952396 414.39799118 381.92963791 C414.40695084 385.52953353 414.40198453 389.12913519 414.38605852 392.72900426 C414.38113648 394.64340682 414.39089589 396.55782989 414.40123022 398.47221088 C414.34782744 406.29897206 413.90735291 412.54260735 408.6875 418.75 C402.34941742 424.05630169 398.12973475 426.12605893 389.88166809 426.12025452 C389.1522325 426.12110894 388.4227969 426.12196337 387.6712572 426.12284368 C385.22067338 426.12449422 382.77015762 426.11898406 380.31958008 426.11352539 C378.56546531 426.1132434 376.81135042 426.11340148 375.05723572 426.1139679 C370.2889601 426.11425541 365.52070952 426.10836606 360.75243974 426.10139394 C355.77162187 426.0951528 350.79080347 426.094556 345.8099823 426.09336853 C336.37526297 426.09025746 326.94055519 426.08204709 317.50584096 426.07201904 C306.76595311 426.06085095 296.02606472 426.05534569 285.28617251 426.05032361 C263.19077379 426.0398643 241.09539091 426.02152159 219 426 C219 437.22 219 448.44 219 460 C222.56554687 459.94199219 226.13109375 459.88398438 229.8046875 459.82421875 C233.28318053 459.78515159 236.76164851 459.75483333 240.24023438 459.7253418 C242.6456203 459.70029916 245.05093089 459.666255 247.45605469 459.62280273 C250.92662206 459.5617012 254.39617772 459.53368637 257.8671875 459.51171875 C258.93113739 459.48591232 259.99508728 459.4601059 261.09127808 459.43351746 C269.13798928 459.43053905 275.86104862 461.2058898 281.91549683 466.75590515 C293.7801548 479.37743377 289 494.58050971 289 512 C213.76 512 138.52 512 61 512 C61 474.09259259 61 474.09259259 69.375 465.5625 C76.33867242 459.81661266 83.17466762 459.58273428 91.83984375 459.70703125 C93.52298424 459.71339851 93.52298424 459.71339851 95.24012756 459.71989441 C98.80616767 459.73661903 102.37163215 459.77426078 105.9375 459.8125 C108.36262202 459.82755483 110.78775294 459.84124183 113.21289062 459.85351562 C119.14232455 459.88394378 125.07052177 459.94267959 131 460 C131 448.78 131 437.56 131 426 C122.97461914 426.0314209 122.97461914 426.0314209 114.78710938 426.06347656 C97.12128615 426.12971877 79.45545807 426.17412816 61.78954315 426.20724869 C51.07740444 426.22786626 40.36538346 426.25597158 29.65332031 426.30175781 C20.31573739 426.34165009 10.97823975 426.36743866 1.64057398 426.37635398 C-3.30281984 426.38156465 -8.24596971 426.39379503 -13.18928528 426.42292023 C-17.84484133 426.45012703 -22.5000536 426.45843434 -27.15568161 426.45243073 C-28.86165105 426.45352861 -30.56763232 426.46145112 -32.27353287 426.4768219 C-42.37756069 426.56337553 -49.79414109 426.51174439 -57.8125 419.5625 C-62.57179717 413.98732331 -64.12105865 409.6824854 -64.13422108 402.44168568 C-64.13867892 401.30368481 -64.14313676 400.16568395 -64.14772969 398.99319822 C-64.14745315 397.11721016 -64.14745315 397.11721016 -64.14717102 395.20332336 C-64.15047096 393.86159938 -64.15419681 392.51987638 -64.1583125 391.17815465 C-64.16832566 387.48765299 -64.17204819 383.7971676 -64.17470181 380.10665429 C-64.17860685 376.12763982 -64.188185 372.14863821 -64.19691467 368.16963196 C-64.21667268 358.55901435 -64.22674412 348.9483957 -64.23564246 339.33776286 C-64.24002616 334.81170904 -64.24539273 330.28565639 -64.25063133 325.7596035 C-64.2676424 310.71387761 -64.28213681 295.66815244 -64.28938007 280.6224184 C-64.29128996 276.71841239 -64.29321029 272.81440638 -64.29516602 268.91040039 C-64.29564976 267.94008277 -64.2961335 266.96976516 -64.2966319 265.97004398 C-64.30493312 250.2497496 -64.33027214 234.52953128 -64.36274669 218.80927012 C-64.39581679 202.66913138 -64.41382876 186.5290313 -64.41702431 170.3888585 C-64.41918938 161.32691778 -64.42793757 152.26508801 -64.45348549 143.20318031 C-64.47519175 135.48611915 -64.48324325 127.7691959 -64.47351871 120.05210767 C-64.46897387 116.11576411 -64.47087071 112.17970511 -64.49028015 108.24340057 C-64.50791176 104.63645266 -64.50691458 101.02999689 -64.49138286 97.42304375 C-64.48788518 95.50717988 -64.50403315 93.59131085 -64.52098733 91.67551881 C-64.46033236 83.53927028 -63.34397471 77.05473856 -58.0703125 70.66015625 C-57.42835937 70.13292969 -56.78640625 69.60570313 -56.125 69.0625 C-55.48820312 68.51722656 -54.85140625 67.97195312 -54.1953125 67.41015625 C-48.19933734 63.55864907 -42.22689457 63.73160077 -35.3515625 63.8046875 C-34.45332764 63.80670166 -33.55509277 63.80871582 -32.62963867 63.81079102 C-29.29470669 63.82120476 -25.95984787 63.84912717 -22.625 63.875 C-11.425625 63.936875 -11.425625 63.936875 0 64 C0 42.88 0 21.76 0 0 Z " fill="#E8E8FE" transform="translate(81,0)"/>
<path d="M0 0 C115.5 0 231 0 350 0 C350 21.12 350 42.24 350 64 C364.77848806 63.88159117 364.77848806 63.88159117 379.55664062 63.72973633 C381.42317182 63.72096622 383.2897088 63.71332353 385.15625 63.70703125 C386.58469238 63.6840094 386.58469238 63.6840094 388.04199219 63.66052246 C394.87733562 63.65786624 400.46134839 64.52607542 406.20703125 68.54296875 C406.73683594 69.08566406 407.26664062 69.62835938 407.8125 70.1875 C408.35519531 70.71730469 408.89789063 71.24710937 409.45703125 71.79296875 C414.59688465 79.14491095 414.42766324 86.63120534 414.38095093 95.28442383 C414.3844113 96.6303155 414.3891784 97.97620434 414.39513266 99.32208729 C414.40762035 103.00555842 414.40148256 106.68879544 414.39217401 110.37226725 C414.38537466 114.35051949 414.39586913 118.32873202 414.40411377 122.30697632 C414.41744386 130.09446088 414.4145766 137.88185863 414.40587585 145.66934657 C414.39909686 151.99918628 414.39818351 158.32900169 414.4014473 164.65884399 C414.401907 165.56021806 414.40236669 166.46159212 414.40284032 167.39028054 C414.40379951 169.22148443 414.40477215 171.05268831 414.4057581 172.88389218 C414.41430987 190.04947537 414.4044812 207.21501048 414.388357 224.38058579 C414.37495401 239.10498492 414.37728216 253.82931309 414.39111328 268.55371094 C414.40717285 285.65845629 414.41348592 302.7631595 414.40427649 319.86791134 C414.40332086 321.69232622 414.40237774 323.51674111 414.4014473 325.34115601 C414.40098447 326.23877035 414.40052164 327.1363847 414.40004479 328.06119949 C414.39745604 334.38241355 414.40182344 340.70360087 414.40888596 347.02481079 C414.41730533 354.72972341 414.41501161 362.43454436 414.39904372 370.1394465 C414.39116689 374.06956162 414.38805934 377.99952396 414.39799118 381.92963791 C414.40695084 385.52953353 414.40198453 389.12913519 414.38605852 392.72900426 C414.38113648 394.64340682 414.39089589 396.55782989 414.40123022 398.47221088 C414.34782744 406.29897206 413.90735291 412.54260735 408.6875 418.75 C402.34941742 424.05630169 398.12973475 426.12605893 389.88166809 426.12025452 C389.1522325 426.12110894 388.4227969 426.12196337 387.6712572 426.12284368 C385.22067338 426.12449422 382.77015762 426.11898406 380.31958008 426.11352539 C378.56546531 426.1132434 376.81135042 426.11340148 375.05723572 426.1139679 C370.2889601 426.11425541 365.52070952 426.10836606 360.75243974 426.10139394 C355.77162187 426.0951528 350.79080347 426.094556 345.8099823 426.09336853 C336.37526297 426.09025746 326.94055519 426.08204709 317.50584096 426.07201904 C306.76595311 426.06085095 296.02606472 426.05534569 285.28617251 426.05032361 C263.19077379 426.0398643 241.09539091 426.02152159 219 426 C219 437.22 219 448.44 219 460 C222.56554687 459.94199219 226.13109375 459.88398438 229.8046875 459.82421875 C233.28318053 459.78515159 236.76164851 459.75483333 240.24023438 459.7253418 C242.6456203 459.70029916 245.05093089 459.666255 247.45605469 459.62280273 C250.92662206 459.5617012 254.39617772 459.53368637 257.8671875 459.51171875 C258.93113739 459.48591232 259.99508728 459.4601059 261.09127808 459.43351746 C269.13798928 459.43053905 275.86104862 461.2058898 281.91549683 466.75590515 C293.7801548 479.37743377 289 494.58050971 289 512 C213.76 512 138.52 512 61 512 C61 474.09259259 61 474.09259259 69.375 465.5625 C76.33867242 459.81661266 83.17466762 459.58273428 91.83984375 459.70703125 C93.52298424 459.71339851 93.52298424 459.71339851 95.24012756 459.71989441 C98.80616767 459.73661903 102.37163215 459.77426078 105.9375 459.8125 C108.36262202 459.82755483 110.78775294 459.84124183 113.21289062 459.85351562 C119.14232455 459.88394378 125.07052177 459.94267959 131 460 C131 448.78 131 437.56 131 426 C122.97461914 426.0314209 122.97461914 426.0314209 114.78710938 426.06347656 C97.12128615 426.12971877 79.45545807 426.17412816 61.78954315 426.20724869 C51.07740444 426.22786626 40.36538346 426.25597158 29.65332031 426.30175781 C20.31573739 426.34165009 10.97823975 426.36743866 1.64057398 426.37635398 C-3.30281984 426.38156465 -8.24596971 426.39379503 -13.18928528 426.42292023 C-17.84484133 426.45012703 -22.5000536 426.45843434 -27.15568161 426.45243073 C-28.86165105 426.45352861 -30.56763232 426.46145112 -32.27353287 426.4768219 C-42.37756069 426.56337553 -49.79414109 426.51174439 -57.8125 419.5625 C-62.57179717 413.98732331 -64.12105865 409.6824854 -64.13422108 402.44168568 C-64.13867892 401.30368481 -64.14313676 400.16568395 -64.14772969 398.99319822 C-64.14745315 397.11721016 -64.14745315 397.11721016 -64.14717102 395.20332336 C-64.15047096 393.86159938 -64.15419681 392.51987638 -64.1583125 391.17815465 C-64.16832566 387.48765299 -64.17204819 383.7971676 -64.17470181 380.10665429 C-64.17860685 376.12763982 -64.188185 372.14863821 -64.19691467 368.16963196 C-64.21667268 358.55901435 -64.22674412 348.9483957 -64.23564246 339.33776286 C-64.24002616 334.81170904 -64.24539273 330.28565639 -64.25063133 325.7596035 C-64.2676424 310.71387761 -64.28213681 295.66815244 -64.28938007 280.6224184 C-64.29128996 276.71841239 -64.29321029 272.81440638 -64.29516602 268.91040039 C-64.29564976 267.94008277 -64.2961335 266.96976516 -64.2966319 265.97004398 C-64.30493312 250.2497496 -64.33027214 234.52953128 -64.36274669 218.80927012 C-64.39581679 202.66913138 -64.41382876 186.5290313 -64.41702431 170.3888585 C-64.41918938 161.32691778 -64.42793757 152.26508801 -64.45348549 143.20318031 C-64.47519175 135.48611915 -64.48324325 127.7691959 -64.47351871 120.05210767 C-64.46897387 116.11576411 -64.47087071 112.17970511 -64.49028015 108.24340057 C-64.50791176 104.63645266 -64.50691458 101.02999689 -64.49138286 97.42304375 C-64.48788518 95.50717988 -64.50403315 93.59131085 -64.52098733 91.67551881 C-64.46033236 83.53927028 -63.34397471 77.05473856 -58.0703125 70.66015625 C-57.42835937 70.13292969 -56.78640625 69.60570313 -56.125 69.0625 C-55.48820312 68.51722656 -54.85140625 67.97195312 -54.1953125 67.41015625 C-48.19933734 63.55864907 -42.22689457 63.73160077 -35.3515625 63.8046875 C-34.45332764 63.80670166 -33.55509277 63.80871582 -32.62963867 63.81079102 C-29.29470669 63.82120476 -25.95984787 63.84912717 -22.625 63.875 C-11.425625 63.936875 -11.425625 63.936875 0 64 C0 42.88 0 21.76 0 0 Z M0 65 C0 75.23 0 85.46 0 96 C-10.56 96 -21.12 96 -32 96 C-32 194.34 -32 292.68 -32 394 C104.62 394 241.24 394 382 394 C382 295.66 382 197.32 382 96 C371.11 96 360.22 96 349 96 C349 85.77 349 75.54 349 65 C233.83 65 118.66 65 0 65 Z " fill="#455FA0" transform="translate(81,0)"/>
<path d="M0 0 C0.00146521 1.03707001 0.00146521 1.03707001 0.00296003 2.09509093 C0.06121949 43.06287615 0.13500675 84.03060774 0.22898628 124.99832735 C0.24025458 129.91628373 0.25139301 134.8342404 0.26245117 139.75219727 C0.26465486 140.73128274 0.26685854 141.71036821 0.269129 142.71912294 C0.30451095 158.57677511 0.32937002 174.43442723 0.35034702 190.29210425 C0.37210191 206.56095821 0.40514938 222.82976089 0.44870156 239.09857124 C0.47522362 249.1390208 0.49291491 259.17940647 0.49934604 269.21988934 C0.50459822 276.10302802 0.52080949 282.98608628 0.54566566 289.86918188 C0.55968647 293.84163601 0.5688493 297.81394613 0.56500816 301.78642654 C0.56159728 305.42423098 0.57196629 309.06172787 0.59323552 312.69946932 C0.60099533 314.63684834 0.59406129 316.57426907 0.58658296 318.51164919 C0.65715801 327.14265111 1.64329105 333.64329105 8 340 C13.17463963 343.30632418 17.81041502 344.58510026 23.96534729 344.49219131 C24.72928108 344.49680669 25.49321487 344.50142207 26.28029817 344.50617731 C28.83118356 344.51673563 31.38105179 344.49884653 33.93188477 344.48101807 C35.78257737 344.48276308 37.63326901 344.4862667 39.48395538 344.49137473 C44.56251102 344.50031228 49.64072878 344.48432772 54.71924138 344.46426249 C60.19836103 344.44698438 65.67746172 344.45283445 71.15660095 344.45587158 C80.64725252 344.45796871 90.13779407 344.44542151 99.62841797 344.42292023 C113.35023944 344.39040839 127.07200772 344.37999403 140.79386353 344.37496826 C163.05677705 344.36621434 185.3196392 344.33963046 207.58251953 344.30175781 C229.208493 344.26501115 250.83445078 344.23668108 272.46044922 344.21972656 C273.12724 344.21920046 273.79403079 344.21867435 274.48102735 344.21813231 C281.84176669 344.21233481 289.20250619 344.20676747 296.56324577 344.20129442 C352.04220434 344.15982936 407.52109936 344.08937824 463 344 C459.86730064 350.51673276 456.41090354 354.94643591 449.73997498 358.16246796 C443.35973203 360.11272588 436.36510273 359.51368841 429.75195312 359.45410156 C427.99710109 359.45297222 426.24224718 359.45360863 424.48739624 359.45587158 C419.73992054 359.45701628 414.99285149 359.43354654 410.24547005 359.40557575 C405.27804772 359.38052137 400.31061542 359.37821692 395.34313965 359.37347412 C385.94391873 359.36105621 376.54488455 359.3282506 367.14574575 359.28807616 C356.44204179 359.2433216 345.73832877 359.22136214 335.03455448 359.20129442 C313.02290903 359.15951691 291.01151948 359.0861793 269 359 C269 370.22 269 381.44 269 393 C272.56554687 392.94199219 276.13109375 392.88398438 279.8046875 392.82421875 C283.28318053 392.78515159 286.76164851 392.75483333 290.24023438 392.7253418 C292.6456203 392.70029916 295.05093089 392.666255 297.45605469 392.62280273 C300.92662206 392.5617012 304.39617772 392.53368637 307.8671875 392.51171875 C308.93113739 392.48591232 309.99508728 392.4601059 311.09127808 392.43351746 C319.13798928 392.43053905 325.86104862 394.2058898 331.91549683 399.75590515 C343.7801548 412.37743377 339 427.58050971 339 445 C263.76 445 188.52 445 111 445 C111 407.09259259 111 407.09259259 119.375 398.5625 C126.33867242 392.81661266 133.17466762 392.58273428 141.83984375 392.70703125 C143.52298424 392.71339851 143.52298424 392.71339851 145.24012756 392.71989441 C148.80616767 392.73661903 152.37163215 392.77426078 155.9375 392.8125 C158.36262202 392.82755483 160.78775294 392.84124183 163.21289062 392.85351562 C169.14232455 392.88394378 175.07052177 392.94267959 181 393 C181 381.78 181 370.56 181 359 C172.97461914 359.0314209 172.97461914 359.0314209 164.78710938 359.06347656 C147.12128615 359.12971877 129.45545807 359.17412816 111.78954315 359.20724869 C101.07740444 359.22786626 90.36538346 359.25597158 79.65332031 359.30175781 C70.31573739 359.34165009 60.97823975 359.36743866 51.64057398 359.37635398 C46.69718016 359.38156465 41.75403029 359.39379503 36.81071472 359.42292023 C32.15515867 359.45012703 27.4999464 359.45843434 22.84431839 359.45243073 C21.13834895 359.45352861 19.43236768 359.46145112 17.72646713 359.4768219 C7.62243931 359.56337553 0.20585891 359.51174439 -7.8125 352.5625 C-12.57179717 346.98732331 -14.12105865 342.6824854 -14.13422108 335.44168568 C-14.13867892 334.30368481 -14.14313676 333.16568395 -14.14772969 331.99319822 C-14.14745315 330.11721016 -14.14745315 330.11721016 -14.14717102 328.20332336 C-14.15047096 326.86159938 -14.15419681 325.51987638 -14.1583125 324.17815465 C-14.16832566 320.48765299 -14.17204819 316.7971676 -14.17470181 313.10665429 C-14.17860685 309.12763982 -14.188185 305.14863821 -14.19691467 301.16963196 C-14.21667268 291.55901435 -14.22674412 281.9483957 -14.23564246 272.33776286 C-14.24002616 267.81170904 -14.24539273 263.28565639 -14.25063133 258.7596035 C-14.2676424 243.71387761 -14.28213681 228.66815244 -14.28938007 213.6224184 C-14.29128996 209.71841239 -14.29321029 205.81440638 -14.29516602 201.91040039 C-14.29564976 200.94008277 -14.2961335 199.96976516 -14.2966319 198.97004398 C-14.30493312 183.2497496 -14.33027214 167.52953128 -14.36274669 151.80927012 C-14.39581679 135.66913138 -14.41382876 119.5290313 -14.41702431 103.3888585 C-14.41918938 94.32691778 -14.42793757 85.26508801 -14.45348549 76.20318031 C-14.47519175 68.48611915 -14.48324325 60.7691959 -14.47351871 53.05210767 C-14.46897387 49.11576411 -14.47087071 45.17970511 -14.49028015 41.24340057 C-14.50791176 37.63645266 -14.50691458 34.02999689 -14.49138286 30.42304375 C-14.48788518 28.50717988 -14.50403315 26.59131085 -14.52098733 24.67551881 C-14.45557943 15.90171268 -13.05138756 9.02753623 -7 2.4375 C-4 0 -4 0 0 0 Z " fill="#2E4C89" transform="translate(31,67)"/>
<path d="M0 0 C114.84 0 229.68 0 348 0 C348 21.12 348 42.24 348 64 C233.16 64 118.32 64 0 64 C0 42.88 0 21.76 0 0 Z " fill="#2A3D7C" transform="translate(82,0)"/>
<path d="M0 0 C45.54 0 91.08 0 138 0 C138 47.19 138 94.38 138 143 C92.46 143 46.92 143 0 143 C0 95.81 0 48.62 0 0 Z " fill="#43C98E" transform="translate(118,96)"/>
<path d="M0 0 C0.77480026 -0.0060911 1.54960053 -0.01218221 2.34787959 -0.01845789 C4.92866044 -0.03502752 7.50894463 -0.0303208 10.08976746 -0.0255127 C11.94647735 -0.0328566 13.80318269 -0.04144377 15.65988159 -0.05117798 C20.69307638 -0.07337036 25.72610734 -0.07632574 30.75934434 -0.07443047 C34.96642845 -0.07431064 39.173478 -0.08287967 43.38055247 -0.09120798 C53.30968932 -0.11043439 63.2387421 -0.11332886 73.16789246 -0.10656738 C83.3977667 -0.09992904 93.62728015 -0.12278448 103.85708123 -0.15988111 C112.65138218 -0.19061046 121.44556726 -0.20193457 130.23992079 -0.1980443 C135.48732637 -0.19597992 140.73445124 -0.20140787 145.9818058 -0.22593689 C150.91909035 -0.24825447 155.85578987 -0.24628448 160.79307747 -0.22600937 C162.59978951 -0.22260804 164.40654131 -0.22765043 166.21319962 -0.24199295 C176.56967086 -0.31850322 185.87294664 -0.3055274 193.90313435 7.14981842 C205.83481495 19.64347152 201.01237488 35.23929178 201.01237488 52.39440918 C125.77237488 52.39440918 50.53237488 52.39440918 -26.98762512 52.39440918 C-26.98762512 14.48700177 -26.98762512 14.48700177 -18.61262512 5.95690918 C-12.99597122 1.322478 -7.12542046 -0.05331464 0 0 Z " fill="#293D7C" transform="translate(168.9876251220703,459.6055908203125)"/>
<path d="M0 0 C10.56 0 21.12 0 32 0 C32 98.34 32 196.68 32 298 C21.44 298 10.88 298 0 298 C0 199.66 0 101.32 0 0 Z " fill="#6FC0F8" transform="translate(431,96)"/>
<path d="M0 0 C10.56 0 21.12 0 32 0 C32 98.34 32 196.68 32 298 C21.44 298 10.88 298 0 298 C0 199.66 0 101.32 0 0 Z " fill="#6FC0F8" transform="translate(49,96)"/>
<path d="M0 0 C90.42 0 180.84 0 274 0 C274 7.92 274 15.84 274 24 C183.58 24 93.16 24 0 24 C0 16.08 0 8.16 0 0 Z " fill="#FBA92B" transform="translate(119,270)"/>
<path d="M0 0 C5.61 0 11.22 0 17 0 C17 108.57 17 217.14 17 329 C11.39 329 5.78 329 0 329 C0 220.43 0 111.86 0 0 Z " fill="#CECFFE" transform="translate(81,65)"/>
<path d="M0 0 C1.26465088 -0.0038269 2.52930176 -0.00765381 3.83227539 -0.01159668 C6.50235149 -0.01431503 9.17095537 -0.00898576 11.84082031 0.00976562 C15.25058273 0.03255571 18.6590856 0.01942339 22.06880188 -0.00452423 C25.33757876 -0.02251307 28.60620664 -0.00989155 31.875 0 C33.09388916 -0.00809692 34.31277832 -0.01619385 35.56860352 -0.02453613 C41.96587817 0.04613327 46.1261355 0.12755984 50.9375 4.53125 C55.79152098 10.04121977 56.07719819 13.50448519 56.03515625 20.6953125 C56.03414917 21.49928467 56.03314209 22.30325684 56.03210449 23.1315918 C56.02686564 26.13982567 56.0129044 29.14803924 56 32.15625 C55.979375 38.88 55.95875 45.60375 55.9375 52.53125 C29.5375 52.53125 3.1375 52.53125 -24.0625 52.53125 C-24.0625 12.53125 -24.0625 12.53125 -19.0625 4.53125 C-13.6344684 -0.83307231 -7.18045842 -0.04769886 0 0 Z " fill="#293D7C" transform="translate(171.0625,185.46875)"/>
<path d="M0 0 C22.77 0 45.54 0 69 0 C69 14.19 69 28.38 69 43 C46.23 43 23.46 43 0 43 C0 28.81 0 14.62 0 0 Z " fill="#EC524F" transform="translate(118,326)"/>
<path d="M0 0 C22.44 0 44.88 0 68 0 C68 14.19 68 28.38 68 43 C45.56 43 23.12 43 0 43 C0 28.81 0 14.62 0 0 Z " fill="#23A8FE" transform="translate(325,326)"/>
<path d="M0 0 C22.44 0 44.88 0 68 0 C68 14.19 68 28.38 68 43 C45.56 43 23.12 43 0 43 C0 28.81 0 14.62 0 0 Z " fill="#43CB8E" transform="translate(222,326)"/>
<path d="M0 0 C21.78 0 43.56 0 66 0 C66 11.22 66 22.44 66 34 C44.22 34 22.44 34 0 34 C0 22.78 0 11.56 0 0 Z " fill="#445EA0" transform="translate(234,426)"/>
<path d="M0 0 C49.17 0 98.34 0 149 0 C149 4.62 149 9.24 149 14 C99.83 14 50.66 14 0 14 C0 9.38 0 4.76 0 0 Z " fill="#E8E8FE" transform="translate(251,25)"/>
<path d="M0 0 C40.26 0 80.52 0 122 0 C122 4.95 122 9.9 122 15 C81.74 15 41.48 15 0 15 C0 10.05 0 5.1 0 0 Z " fill="#D0D0FF" transform="translate(279,224)"/>
<path d="M0 0 C40.26 0 80.52 0 122 0 C122 4.95 122 9.9 122 15 C81.74 15 41.48 15 0 15 C0 10.05 0 5.1 0 0 Z " fill="#D0D0FF" transform="translate(279,192)"/>
<path d="M0 0 C40.26 0 80.52 0 122 0 C122 4.95 122 9.9 122 15 C81.74 15 41.48 15 0 15 C0 10.05 0 5.1 0 0 Z " fill="#D0D0FF" transform="translate(279,160)"/>
<path d="M0 0 C6.05051128 3.34445584 11.2504732 8.48172717 13.8125 15 C14.92801882 23.66581992 13.92209091 30.82511512 8.8125 38 C6.90237336 40.12520792 5.23487085 41.36860739 2.8125 43 C1.966875 43.598125 1.12125 44.19625 0.25 44.8125 C-6.3041618 47.07666498 -14.11733641 47.33234728 -20.5625 44.5 C-27.09755892 40.5900176 -32.05567226 34.27329464 -34.1875 27 C-35.34536126 19.31128087 -33.5601726 13.37727313 -29.1875 7 C-21.44554586 -1.73498388 -10.78786696 -4.85290064 0 0 Z " fill="#293E7C" transform="translate(197.1875,118)"/>
<path d="M0 0 C39.93 0 79.86 0 121 0 C121 4.62 121 9.24 121 14 C81.07 14 41.14 14 0 14 C0 9.38 0 4.76 0 0 Z " fill="#CFCFFF" transform="translate(280,128)"/>
<path d="M0 0 C39.93 0 79.86 0 121 0 C121 4.62 121 9.24 121 14 C81.07 14 41.14 14 0 14 C0 9.38 0 4.76 0 0 Z " fill="#CFCFFF" transform="translate(280,96)"/>
<path d="M0 0 C3.63 0 7.26 0 11 0 C11 47.19 11 94.38 11 143 C7.37 143 3.74 143 0 143 C0 95.81 0 48.62 0 0 Z " fill="#0ABC6C" transform="translate(118,96)"/>
<path d="M0 0 C1.20849609 0.01353516 2.41699219 0.02707031 3.66210938 0.04101562 C6.62937082 0.07620054 9.59569937 0.12543304 12.5625 0.1875 C10.60075499 1.17754668 8.65406769 2.1483891 6.6328125 3.01171875 C-0.64790213 6.24271862 -4.69862803 10.89348549 -7.78279114 18.2257843 C-8.85163829 21.42838987 -8.88178141 24.51271433 -8.94921875 27.87109375 C-8.96716995 28.57146255 -8.98512115 29.27183136 -9.00361633 29.99342346 C-9.05727555 32.20388989 -9.09146932 34.41414612 -9.125 36.625 C-9.15821257 38.13479461 -9.19270581 39.64456163 -9.22851562 41.15429688 C-9.31535997 44.83205397 -9.37579984 48.5088938 -9.4375 52.1875 C-17.0275 52.1875 -24.6175 52.1875 -32.4375 52.1875 C-32.55315489 47.6692488 -32.65240154 43.15625519 -32.7121582 38.63769531 C-32.73709759 37.1052905 -32.77106266 35.57300208 -32.81469727 34.04101562 C-33.09467242 23.9487346 -32.93028918 15.1162006 -25.6809082 7.29150391 C-17.9332044 -0.08804079 -10.25126041 -0.21811192 0 0 Z " fill="#1A2B63" transform="translate(174.4375,459.8125)"/>
<path d="M0 0 C5.28 0 10.56 0 16 0 C16 21.12 16 42.24 16 64 C10.72 64 5.44 64 0 64 C0 42.88 0 21.76 0 0 Z " fill="#1A2B63" transform="translate(82,0)"/>
<path d="M0 0 C3.63 0 7.26 0 11 0 C11 14.19 11 28.38 11 43 C7.37 43 3.74 43 0 43 C0 28.81 0 14.62 0 0 Z " fill="#0394FA" transform="translate(325,326)"/>
<path d="M0 0 C3.63 0 7.26 0 11 0 C11 14.19 11 28.38 11 43 C7.37 43 3.74 43 0 43 C0 28.81 0 14.62 0 0 Z " fill="#02BA67" transform="translate(222,326)"/>
<path d="M0 0 C3.63 0 7.26 0 11 0 C11 14.19 11 28.38 11 43 C7.37 43 3.74 43 0 43 C0 28.81 0 14.62 0 0 Z " fill="#C24946" transform="translate(118,326)"/>
<path d="M0 0 C3.3 0 6.6 0 10 0 C10 7.92 10 15.84 10 24 C6.7 24 3.4 24 0 24 C0 16.08 0 8.16 0 0 Z " fill="#E89F31" transform="translate(119,270)"/>
<path d="M0 0 C5.28 0 10.56 0 16 0 C16 4.62 16 9.24 16 14 C10.72 14 5.44 14 0 14 C0 9.38 0 4.76 0 0 Z " fill="#F8A72B" transform="translate(179,25)"/>
<path d="M0 0 C5.28 0 10.56 0 16 0 C16 4.62 16 9.24 16 14 C10.72 14 5.44 14 0 14 C0 9.38 0 4.76 0 0 Z " fill="#F84554" transform="translate(149,25)"/>
<path d="M0 0 C5.28 0 10.56 0 16 0 C16 4.62 16 9.24 16 14 C10.72 14 5.44 14 0 14 C0 9.38 0 4.76 0 0 Z " fill="#23A6FC" transform="translate(119,25)"/>
</svg>
